<?xml version="1.0" encoding="UTF-8" standalone="no"?>
<!DOCTYPE svg PUBLIC "-//W3C//DTD SVG 1.1//EN" "http://www.w3.org/Graphics/SVG/1.1/DTD/svg11.dtd">
<svg width="100%" height="100%" viewBox="0 0 1182 1063" version="1.1" xmlns="http://www.w3.org/2000/svg" xmlns:xlink="http://www.w3.org/1999/xlink" xml:space="preserve" xmlns:serif="http://www.serif.com/" style="fill-rule:evenodd;clip-rule:evenodd;stroke-linejoin:round;stroke-miterlimit:2;">
    <g transform="matrix(1.5348,0,0,1.5348,-420.244,116.403)">
        <path d="M395.411,540.136L351.011,540.136L351.011,0.774L395.411,0.774C404.411,0.774 409.211,-4.026 409.211,-13.626C409.211,-23.226 404.411,-28.026 395.411,-28.026L324.011,-28.026L324.011,568.936L395.411,568.936C404.411,568.936 409.211,564.136 409.211,554.536C409.211,547.336 402.611,540.136 395.411,540.136Z" style="fill-rule:nonzero;"/>
    </g>
    <g transform="matrix(1.5348,0,0,1.5348,-84.4201,244.383)">
        <path d="M702.955,485.55L774.355,485.55L774.355,-111.412L702.955,-111.412C693.955,-111.412 689.155,-106.612 689.155,-97.012C689.155,-87.412 693.955,-82.612 702.955,-82.612L747.355,-82.612L747.355,456.75L702.955,456.75C693.955,456.75 689.155,461.55 689.155,471.15C689.155,480.75 693.955,485.55 702.955,485.55Z" style="fill-rule:nonzero;"/>
    </g>
    <g transform="matrix(1.8387,0,0,1.8773,-429.966,-472.364)">
        <rect x="312.86" y="327.81" width="236.222" height="199.965" style="fill:rgb(223,223,223);"/>
    </g>
    <g transform="matrix(1.8387,0,0,1.8773,27.2143,-472.364)">
        <rect x="312.86" y="327.81" width="236.222" height="199.965" style="fill:rgb(223,223,223);"/>
    </g>
    <g transform="matrix(1.8387,0,0,1.8773,-429.966,-70.6827)">
        <rect x="312.86" y="327.81" width="236.222" height="199.965" style="fill:rgb(223,223,223);"/>
    </g>
    <g transform="matrix(1.8387,0,0,1.8773,27.2143,-70.6827)">
        <rect x="312.86" y="327.81" width="236.222" height="199.965" style="fill:rgb(195,225,246);"/>
    </g>
    <g transform="matrix(1.5348,0,0,1.5348,-261.96,-302.142)">
        <text x="354.192px" y="502.95px" style="font-family:'NewCM10-Book', 'NewComputerModern10';font-size:266.667px;fill:rgb(167,24,87);">t</text>
    </g>
    <g transform="matrix(1.5348,0,0,1.5348,-240.09,102.506)">
        <text x="354.192px" y="502.95px" style="font-family:'NewCM10-Book', 'NewComputerModern10';font-size:266.667px;fill:rgb(0,89,48);">l</text>
    </g>
    <g transform="matrix(1.5348,0,0,1.5348,195.808,102.506)">
        <text x="354.192px" y="502.95px" style="font-family:'NewCM10-Book', 'NewComputerModern10';font-size:266.667px;fill:rgb(45,45,217);">r</text>
    </g>
    <g transform="matrix(1.5348,0,0,1.5348,163.68,-302.142)">
        <text x="354.192px" y="502.95px" style="font-family:'NewCM10-Book', 'NewComputerModern10';font-size:266.667px;fill:rgb(123,64,10);">b</text>
    </g>
</svg>
