<?xml version="1.0" encoding="UTF-8" standalone="no"?>
<!DOCTYPE svg PUBLIC "-//W3C//DTD SVG 1.1//EN" "http://www.w3.org/Graphics/SVG/1.1/DTD/svg11.dtd">
<svg width="100%" height="100%" viewBox="0 0 1182 1182" version="1.1" xmlns="http://www.w3.org/2000/svg" xmlns:xlink="http://www.w3.org/1999/xlink" xml:space="preserve" xmlns:serif="http://www.serif.com/" style="fill-rule:evenodd;clip-rule:evenodd;stroke-linejoin:round;stroke-miterlimit:2;">
    <g transform="matrix(1.64597,0,0,1.64597,-493.461,142.89)">
        <text x="255.611px" y="421.974px" style="font-family:'NewCMMath-Book', 'NewComputerModernMath';font-size:600px;">[</text>
    </g>
    <g transform="matrix(1.64597,0,0,1.64597,-133.312,280.141)">
        <text x="675.955px" y="338.588px" style="font-family:'NewCMMath-Book', 'NewComputerModernMath';font-size:600px;">]</text>
    </g>
    <g transform="matrix(1.97189,0,0,2.01328,-501.888,-478.524)">
        <rect x="312.86" y="327.81" width="236.222" height="199.965" style="fill:rgb(223,223,223);"/>
    </g>
    <g transform="matrix(1.97189,0,0,2.01328,-11.5913,-478.524)">
        <rect x="312.86" y="327.81" width="236.222" height="199.965" style="fill:rgb(223,223,223);"/>
    </g>
    <g transform="matrix(1.97189,0,0,2.01328,-501.888,-47.7467)">
        <rect x="312.86" y="327.81" width="236.222" height="199.965" style="fill:rgb(223,223,223);"/>
    </g>
    <g transform="matrix(1.97189,0,0,2.01328,-11.5913,-47.7467)">
        <rect x="312.86" y="327.81" width="236.222" height="199.965" style="fill:rgb(195,225,246);"/>
    </g>
    <g transform="matrix(1.64597,0,0,1.64597,-321.712,-295.972)">
        <text x="354.192px" y="502.95px" style="font-family:'NewCM10-Book', 'NewComputerModern10';font-size:266.667px;fill:rgb(167,24,87);">t</text>
    </g>
    <g transform="matrix(1.64597,0,0,1.64597,-298.257,137.987)">
        <text x="354.192px" y="502.95px" style="font-family:'NewCM10-Book', 'NewComputerModern10';font-size:266.667px;fill:rgb(0,89,48);">l</text>
    </g>
    <g transform="matrix(1.64597,0,0,1.64597,169.215,137.987)">
        <text x="354.192px" y="502.95px" style="font-family:'NewCM10-Book', 'NewComputerModern10';font-size:266.667px;fill:rgb(45,45,217);">r</text>
    </g>
    <g transform="matrix(1.64597,0,0,1.64597,134.76,-295.972)">
        <text x="354.192px" y="502.95px" style="font-family:'NewCM10-Book', 'NewComputerModern10';font-size:266.667px;fill:rgb(123,64,10);">b</text>
    </g>
</svg>
